<mxfile host="app.diagrams.net" agent="Mozilla/5.0 (Windows NT 10.0; Win64; x64) AppleWebKit/537.36 (KHTML, like Gecko) Chrome/138.0.0.0 Whale/4.33.325.17 Safari/537.36" version="28.1.0">
  <diagram name="페이지-1" id="r8mCSnYucxKKDC4mQy1r">
    <mxGraphModel dx="1146" dy="1305" grid="1" gridSize="10" guides="1" tooltips="1" connect="1" arrows="1" fold="1" page="1" pageScale="1" pageWidth="827" pageHeight="1169" math="0" shadow="0">
      <root>
        <mxCell id="0" />
        <mxCell id="1" parent="0" />
        <mxCell id="iD-A8TtcfbhBeS0kD-Tq-21" value="«user»&lt;br&gt;&lt;b&gt;&lt;font style=&quot;font-size: 16px;&quot;&gt;사용자&lt;/font&gt;&lt;/b&gt;" style="html=1;dropTarget=0;whiteSpace=wrap;" parent="1" vertex="1">
          <mxGeometry x="80" y="310" width="180" height="90" as="geometry" />
        </mxCell>
        <mxCell id="iD-A8TtcfbhBeS0kD-Tq-22" value="" style="shape=module;jettyWidth=8;jettyHeight=4;" parent="iD-A8TtcfbhBeS0kD-Tq-21" vertex="1">
          <mxGeometry x="1" width="20" height="20" relative="1" as="geometry">
            <mxPoint x="-27" y="7" as="offset" />
          </mxGeometry>
        </mxCell>
        <mxCell id="iD-A8TtcfbhBeS0kD-Tq-23" value="«external device»&lt;br&gt;&lt;b&gt;&lt;font style=&quot;font-size: 16px;&quot;&gt;가전기기&lt;/font&gt;&lt;/b&gt;" style="html=1;dropTarget=0;whiteSpace=wrap;" parent="1" vertex="1">
          <mxGeometry x="710" y="310" width="180" height="90" as="geometry" />
        </mxCell>
        <mxCell id="iD-A8TtcfbhBeS0kD-Tq-24" value="" style="shape=module;jettyWidth=8;jettyHeight=4;" parent="iD-A8TtcfbhBeS0kD-Tq-23" vertex="1">
          <mxGeometry x="1" width="20" height="20" relative="1" as="geometry">
            <mxPoint x="-27" y="7" as="offset" />
          </mxGeometry>
        </mxCell>
        <mxCell id="iD-A8TtcfbhBeS0kD-Tq-26" value="«system»&lt;br&gt;&lt;span style=&quot;font-size: 16px;&quot;&gt;&lt;b&gt;스마트홈 전기관리 시스템&lt;/b&gt;&lt;/span&gt;" style="html=1;dropTarget=0;whiteSpace=wrap;" parent="1" vertex="1">
          <mxGeometry x="370" y="310" width="220" height="90" as="geometry" />
        </mxCell>
        <mxCell id="iD-A8TtcfbhBeS0kD-Tq-27" value="" style="shape=module;jettyWidth=8;jettyHeight=4;" parent="iD-A8TtcfbhBeS0kD-Tq-26" vertex="1">
          <mxGeometry x="1" width="20" height="20" relative="1" as="geometry">
            <mxPoint x="-27" y="7" as="offset" />
          </mxGeometry>
        </mxCell>
        <mxCell id="iD-A8TtcfbhBeS0kD-Tq-30" value="«external system»&lt;br&gt;&lt;b&gt;&lt;font style=&quot;font-size: 16px;&quot;&gt;전력공급사&lt;/font&gt;&lt;/b&gt;" style="html=1;dropTarget=0;whiteSpace=wrap;" parent="1" vertex="1">
          <mxGeometry x="390" y="550" width="180" height="90" as="geometry" />
        </mxCell>
        <mxCell id="iD-A8TtcfbhBeS0kD-Tq-31" value="" style="shape=module;jettyWidth=8;jettyHeight=4;" parent="iD-A8TtcfbhBeS0kD-Tq-30" vertex="1">
          <mxGeometry x="1" width="20" height="20" relative="1" as="geometry">
            <mxPoint x="-27" y="7" as="offset" />
          </mxGeometry>
        </mxCell>
        <mxCell id="iD-A8TtcfbhBeS0kD-Tq-32" value="«external device»&lt;br&gt;&lt;span style=&quot;font-size: 16px;&quot;&gt;&lt;b&gt;스마트미터&lt;/b&gt;&lt;/span&gt;" style="html=1;dropTarget=0;whiteSpace=wrap;" parent="1" vertex="1">
          <mxGeometry x="630" y="550" width="180" height="90" as="geometry" />
        </mxCell>
        <mxCell id="iD-A8TtcfbhBeS0kD-Tq-33" value="" style="shape=module;jettyWidth=8;jettyHeight=4;" parent="iD-A8TtcfbhBeS0kD-Tq-32" vertex="1">
          <mxGeometry x="1" width="20" height="20" relative="1" as="geometry">
            <mxPoint x="-27" y="7" as="offset" />
          </mxGeometry>
        </mxCell>
        <mxCell id="iD-A8TtcfbhBeS0kD-Tq-45" value="" style="ellipse;whiteSpace=wrap;html=1;align=center;aspect=fixed;fillColor=none;strokeColor=none;resizable=0;perimeter=centerPerimeter;rotatable=0;allowArrows=0;points=[];outlineConnect=1;" parent="1" vertex="1">
          <mxGeometry x="620" y="364" width="10" height="10" as="geometry" />
        </mxCell>
        <mxCell id="iD-A8TtcfbhBeS0kD-Tq-48" style="edgeStyle=orthogonalEdgeStyle;rounded=0;orthogonalLoop=1;jettySize=auto;html=1;exitX=0;exitY=0.5;exitDx=0;exitDy=0;exitPerimeter=0;entryX=0;entryY=0.5;entryDx=0;entryDy=0;endArrow=none;endFill=0;" parent="1" source="iD-A8TtcfbhBeS0kD-Tq-46" target="iD-A8TtcfbhBeS0kD-Tq-26" edge="1">
          <mxGeometry relative="1" as="geometry" />
        </mxCell>
        <mxCell id="iD-A8TtcfbhBeS0kD-Tq-49" style="edgeStyle=orthogonalEdgeStyle;rounded=0;orthogonalLoop=1;jettySize=auto;html=1;exitX=1;exitY=0.5;exitDx=0;exitDy=0;exitPerimeter=0;entryX=1;entryY=0.5;entryDx=0;entryDy=0;endArrow=none;endFill=0;" parent="1" source="iD-A8TtcfbhBeS0kD-Tq-46" target="iD-A8TtcfbhBeS0kD-Tq-21" edge="1">
          <mxGeometry relative="1" as="geometry" />
        </mxCell>
        <mxCell id="iD-A8TtcfbhBeS0kD-Tq-46" value="" style="shape=providedRequiredInterface;html=1;verticalLabelPosition=bottom;sketch=0;rotation=-180;" parent="1" vertex="1">
          <mxGeometry x="310" y="345" width="20" height="20" as="geometry" />
        </mxCell>
        <mxCell id="iD-A8TtcfbhBeS0kD-Tq-51" style="edgeStyle=orthogonalEdgeStyle;rounded=0;orthogonalLoop=1;jettySize=auto;html=1;exitX=1;exitY=0.5;exitDx=0;exitDy=0;exitPerimeter=0;endArrow=none;endFill=0;" parent="1" source="iD-A8TtcfbhBeS0kD-Tq-50" target="iD-A8TtcfbhBeS0kD-Tq-26" edge="1">
          <mxGeometry relative="1" as="geometry" />
        </mxCell>
        <mxCell id="iD-A8TtcfbhBeS0kD-Tq-52" style="edgeStyle=orthogonalEdgeStyle;rounded=0;orthogonalLoop=1;jettySize=auto;html=1;exitX=0;exitY=0.5;exitDx=0;exitDy=0;exitPerimeter=0;entryX=0;entryY=0.5;entryDx=0;entryDy=0;endArrow=none;endFill=0;" parent="1" source="iD-A8TtcfbhBeS0kD-Tq-50" target="iD-A8TtcfbhBeS0kD-Tq-23" edge="1">
          <mxGeometry relative="1" as="geometry" />
        </mxCell>
        <mxCell id="iD-A8TtcfbhBeS0kD-Tq-50" value="" style="shape=providedRequiredInterface;html=1;verticalLabelPosition=bottom;sketch=0;rotation=-180;" parent="1" vertex="1">
          <mxGeometry x="640" y="345" width="20" height="20" as="geometry" />
        </mxCell>
        <mxCell id="iD-A8TtcfbhBeS0kD-Tq-55" style="rounded=0;orthogonalLoop=1;jettySize=auto;html=1;exitX=1;exitY=0.5;exitDx=0;exitDy=0;exitPerimeter=0;entryX=1;entryY=1;entryDx=0;entryDy=0;endArrow=none;endFill=0;" parent="1" source="iD-A8TtcfbhBeS0kD-Tq-53" target="iD-A8TtcfbhBeS0kD-Tq-26" edge="1">
          <mxGeometry relative="1" as="geometry" />
        </mxCell>
        <mxCell id="iD-A8TtcfbhBeS0kD-Tq-56" style="rounded=0;orthogonalLoop=1;jettySize=auto;html=1;exitX=0;exitY=0.5;exitDx=0;exitDy=0;exitPerimeter=0;entryX=0;entryY=0;entryDx=0;entryDy=0;endArrow=none;endFill=0;" parent="1" source="iD-A8TtcfbhBeS0kD-Tq-53" target="iD-A8TtcfbhBeS0kD-Tq-32" edge="1">
          <mxGeometry relative="1" as="geometry" />
        </mxCell>
        <mxCell id="iD-A8TtcfbhBeS0kD-Tq-53" value="" style="shape=providedRequiredInterface;html=1;verticalLabelPosition=bottom;sketch=0;rotation=135;direction=south;" parent="1" vertex="1">
          <mxGeometry x="600" y="442" width="20" height="20" as="geometry" />
        </mxCell>
        <mxCell id="iD-A8TtcfbhBeS0kD-Tq-62" style="edgeStyle=orthogonalEdgeStyle;rounded=0;orthogonalLoop=1;jettySize=auto;html=1;exitX=1;exitY=0.5;exitDx=0;exitDy=0;exitPerimeter=0;entryX=0.5;entryY=1;entryDx=0;entryDy=0;endArrow=none;endFill=0;" parent="1" source="iD-A8TtcfbhBeS0kD-Tq-61" target="iD-A8TtcfbhBeS0kD-Tq-26" edge="1">
          <mxGeometry relative="1" as="geometry" />
        </mxCell>
        <mxCell id="iD-A8TtcfbhBeS0kD-Tq-63" style="edgeStyle=orthogonalEdgeStyle;rounded=0;orthogonalLoop=1;jettySize=auto;html=1;exitX=0;exitY=0.5;exitDx=0;exitDy=0;exitPerimeter=0;entryX=0.5;entryY=0;entryDx=0;entryDy=0;endArrow=none;endFill=0;" parent="1" source="iD-A8TtcfbhBeS0kD-Tq-61" target="iD-A8TtcfbhBeS0kD-Tq-30" edge="1">
          <mxGeometry relative="1" as="geometry" />
        </mxCell>
        <mxCell id="iD-A8TtcfbhBeS0kD-Tq-61" value="" style="shape=providedRequiredInterface;html=1;verticalLabelPosition=bottom;sketch=0;rotation=-90;" parent="1" vertex="1">
          <mxGeometry x="470" y="444" width="20" height="20" as="geometry" />
        </mxCell>
        <mxCell id="iD-A8TtcfbhBeS0kD-Tq-64" value="customerInterface" style="text;html=1;align=center;verticalAlign=middle;resizable=0;points=[];autosize=1;strokeColor=none;fillColor=none;" parent="1" vertex="1">
          <mxGeometry x="260" y="362" width="120" height="30" as="geometry" />
        </mxCell>
        <mxCell id="iD-A8TtcfbhBeS0kD-Tq-65" value="applianceInterface" style="text;html=1;align=center;verticalAlign=middle;resizable=0;points=[];autosize=1;strokeColor=none;fillColor=none;" parent="1" vertex="1">
          <mxGeometry x="590" y="364" width="120" height="30" as="geometry" />
        </mxCell>
        <mxCell id="iD-A8TtcfbhBeS0kD-Tq-66" value="meterInterface" style="text;html=1;align=center;verticalAlign=middle;resizable=0;points=[];autosize=1;strokeColor=none;fillColor=none;" parent="1" vertex="1">
          <mxGeometry x="600" y="464" width="100" height="30" as="geometry" />
        </mxCell>
        <mxCell id="iD-A8TtcfbhBeS0kD-Tq-67" value="supplierInterface" style="text;html=1;align=center;verticalAlign=middle;resizable=0;points=[];autosize=1;strokeColor=none;fillColor=none;" parent="1" vertex="1">
          <mxGeometry x="470" y="454" width="110" height="30" as="geometry" />
        </mxCell>
        <mxCell id="iD-A8TtcfbhBeS0kD-Tq-76" value="&lt;span style=&quot;font-size: 13.3333px;&quot;&gt;5명&lt;/span&gt;&lt;div&gt;&lt;span style=&quot;font-size: 13.3333px;&quot;&gt;시스템 연결 된 사용자를 5명으로&lt;/span&gt;&lt;/div&gt;&lt;div&gt;&lt;span style=&quot;font-size: 13.3333px;&quot;&gt;가정&lt;/span&gt;&lt;/div&gt;" style="shape=note2;boundedLbl=1;whiteSpace=wrap;html=1;size=25;verticalAlign=top;align=left;" parent="1" vertex="1">
          <mxGeometry x="80" y="424" width="200" height="86" as="geometry" />
        </mxCell>
        <mxCell id="iD-A8TtcfbhBeS0kD-Tq-77" style="edgeStyle=orthogonalEdgeStyle;rounded=0;orthogonalLoop=1;jettySize=auto;html=1;exitX=0.5;exitY=0;exitDx=0;exitDy=0;exitPerimeter=0;entryX=0.439;entryY=0.993;entryDx=0;entryDy=0;entryPerimeter=0;endArrow=none;endFill=0;dashed=1;" parent="1" source="iD-A8TtcfbhBeS0kD-Tq-76" target="iD-A8TtcfbhBeS0kD-Tq-21" edge="1">
          <mxGeometry relative="1" as="geometry" />
        </mxCell>
        <mxCell id="iD-A8TtcfbhBeS0kD-Tq-78" value="1개" style="shape=note2;boundedLbl=1;whiteSpace=wrap;html=1;size=15;verticalAlign=top;align=center;" parent="1" vertex="1">
          <mxGeometry x="455" y="690" width="50" height="60" as="geometry" />
        </mxCell>
        <mxCell id="iD-A8TtcfbhBeS0kD-Tq-79" style="edgeStyle=orthogonalEdgeStyle;rounded=0;orthogonalLoop=1;jettySize=auto;html=1;exitX=0.5;exitY=0;exitDx=0;exitDy=0;exitPerimeter=0;endArrow=none;endFill=0;dashed=1;entryX=0.5;entryY=1;entryDx=0;entryDy=0;" parent="1" source="iD-A8TtcfbhBeS0kD-Tq-78" target="iD-A8TtcfbhBeS0kD-Tq-30" edge="1">
          <mxGeometry relative="1" as="geometry">
            <mxPoint x="480" y="660" as="targetPoint" />
          </mxGeometry>
        </mxCell>
        <mxCell id="1AKA_FO3HEyKGd7aFu5U-1" value="2개&lt;br&gt;&lt;div&gt;가정 전체 전력 측정용과&lt;/div&gt;&lt;div&gt;부분 전력 측정용&lt;/div&gt;" style="shape=note2;boundedLbl=1;whiteSpace=wrap;html=1;size=15;verticalAlign=top;align=left;" parent="1" vertex="1">
          <mxGeometry x="640" y="690" width="160" height="66" as="geometry" />
        </mxCell>
        <mxCell id="1AKA_FO3HEyKGd7aFu5U-2" style="edgeStyle=orthogonalEdgeStyle;rounded=0;orthogonalLoop=1;jettySize=auto;html=1;exitX=0.5;exitY=0;exitDx=0;exitDy=0;exitPerimeter=0;endArrow=none;endFill=0;dashed=1;entryX=0.5;entryY=1;entryDx=0;entryDy=0;" parent="1" source="1AKA_FO3HEyKGd7aFu5U-1" edge="1">
          <mxGeometry relative="1" as="geometry">
            <mxPoint x="720" y="640" as="targetPoint" />
          </mxGeometry>
        </mxCell>
        <mxCell id="1AKA_FO3HEyKGd7aFu5U-3" value="100개&lt;div&gt;스펙에 따라 최대 100개 동시 연결을 지원한다&lt;/div&gt;" style="shape=note2;boundedLbl=1;whiteSpace=wrap;html=1;size=15;verticalAlign=top;align=left;" parent="1" vertex="1">
          <mxGeometry x="820" y="424" width="150" height="76" as="geometry" />
        </mxCell>
        <mxCell id="1AKA_FO3HEyKGd7aFu5U-6" style="edgeStyle=orthogonalEdgeStyle;rounded=0;orthogonalLoop=1;jettySize=auto;html=1;exitX=0;exitY=0;exitDx=17.5;exitDy=0;endArrow=none;endFill=0;dashed=1;entryX=0.75;entryY=1;entryDx=0;entryDy=0;exitPerimeter=0;" parent="1" source="1AKA_FO3HEyKGd7aFu5U-3" target="iD-A8TtcfbhBeS0kD-Tq-23" edge="1">
          <mxGeometry relative="1" as="geometry">
            <mxPoint x="900" y="474" as="targetPoint" />
            <mxPoint x="900" y="520" as="sourcePoint" />
          </mxGeometry>
        </mxCell>
        <mxCell id="4d4zeJCJbdyDPjrFUUaZ-7" value="«external system»&lt;br&gt;&lt;b&gt;&lt;font style=&quot;font-size: 16px;&quot;&gt;클라우드 플랫폼&lt;/font&gt;&lt;/b&gt;" style="html=1;dropTarget=0;whiteSpace=wrap;" vertex="1" parent="1">
          <mxGeometry x="160" y="550" width="180" height="90" as="geometry" />
        </mxCell>
        <mxCell id="4d4zeJCJbdyDPjrFUUaZ-8" value="" style="shape=module;jettyWidth=8;jettyHeight=4;" vertex="1" parent="4d4zeJCJbdyDPjrFUUaZ-7">
          <mxGeometry x="1" width="20" height="20" relative="1" as="geometry">
            <mxPoint x="-27" y="7" as="offset" />
          </mxGeometry>
        </mxCell>
        <mxCell id="4d4zeJCJbdyDPjrFUUaZ-9" style="rounded=0;orthogonalLoop=1;jettySize=auto;html=1;exitX=1;exitY=0.5;exitDx=0;exitDy=0;exitPerimeter=0;entryX=0;entryY=1;entryDx=0;entryDy=0;endArrow=none;endFill=0;" edge="1" parent="1" source="4d4zeJCJbdyDPjrFUUaZ-11">
          <mxGeometry relative="1" as="geometry">
            <mxPoint x="370" y="400" as="targetPoint" />
          </mxGeometry>
        </mxCell>
        <mxCell id="4d4zeJCJbdyDPjrFUUaZ-10" style="rounded=0;orthogonalLoop=1;jettySize=auto;html=1;exitX=0;exitY=0.5;exitDx=0;exitDy=0;exitPerimeter=0;entryX=1;entryY=0;entryDx=0;entryDy=0;endArrow=none;endFill=0;" edge="1" parent="1" source="4d4zeJCJbdyDPjrFUUaZ-11" target="4d4zeJCJbdyDPjrFUUaZ-7">
          <mxGeometry relative="1" as="geometry">
            <mxPoint x="360" y="548" as="targetPoint" />
          </mxGeometry>
        </mxCell>
        <mxCell id="4d4zeJCJbdyDPjrFUUaZ-11" value="" style="shape=providedRequiredInterface;html=1;verticalLabelPosition=bottom;sketch=0;rotation=-150;direction=south;" vertex="1" parent="1">
          <mxGeometry x="350" y="454" width="20" height="20" as="geometry" />
        </mxCell>
        <mxCell id="4d4zeJCJbdyDPjrFUUaZ-12" value="cloudInterface" style="text;html=1;align=center;verticalAlign=middle;resizable=0;points=[];autosize=1;strokeColor=none;fillColor=none;" vertex="1" parent="1">
          <mxGeometry x="290" y="489" width="100" height="30" as="geometry" />
        </mxCell>
        <mxCell id="4d4zeJCJbdyDPjrFUUaZ-13" value="1개" style="shape=note2;boundedLbl=1;whiteSpace=wrap;html=1;size=15;verticalAlign=top;align=center;" vertex="1" parent="1">
          <mxGeometry x="210" y="690" width="50" height="60" as="geometry" />
        </mxCell>
        <mxCell id="4d4zeJCJbdyDPjrFUUaZ-14" style="edgeStyle=orthogonalEdgeStyle;rounded=0;orthogonalLoop=1;jettySize=auto;html=1;exitX=0.5;exitY=0;exitDx=0;exitDy=0;exitPerimeter=0;endArrow=none;endFill=0;dashed=1;entryX=0.5;entryY=1;entryDx=0;entryDy=0;" edge="1" parent="1" source="4d4zeJCJbdyDPjrFUUaZ-13">
          <mxGeometry relative="1" as="geometry">
            <mxPoint x="235" y="640" as="targetPoint" />
          </mxGeometry>
        </mxCell>
        <mxCell id="4d4zeJCJbdyDPjrFUUaZ-15" value="«external system»&lt;br&gt;&lt;span style=&quot;font-size: 16px;&quot;&gt;&lt;b&gt;IoT허브&lt;/b&gt;&lt;/span&gt;" style="html=1;dropTarget=0;whiteSpace=wrap;" vertex="1" parent="1">
          <mxGeometry x="710" y="150" width="180" height="90" as="geometry" />
        </mxCell>
        <mxCell id="4d4zeJCJbdyDPjrFUUaZ-16" value="" style="shape=module;jettyWidth=8;jettyHeight=4;" vertex="1" parent="4d4zeJCJbdyDPjrFUUaZ-15">
          <mxGeometry x="1" width="20" height="20" relative="1" as="geometry">
            <mxPoint x="-27" y="7" as="offset" />
          </mxGeometry>
        </mxCell>
        <mxCell id="4d4zeJCJbdyDPjrFUUaZ-17" style="rounded=0;orthogonalLoop=1;jettySize=auto;html=1;exitX=1;exitY=0.5;exitDx=0;exitDy=0;exitPerimeter=0;endArrow=none;endFill=0;entryX=1;entryY=0;entryDx=0;entryDy=0;" edge="1" parent="1" source="4d4zeJCJbdyDPjrFUUaZ-18" target="iD-A8TtcfbhBeS0kD-Tq-26">
          <mxGeometry relative="1" as="geometry">
            <mxPoint x="590" y="175" as="targetPoint" />
          </mxGeometry>
        </mxCell>
        <mxCell id="4d4zeJCJbdyDPjrFUUaZ-21" style="rounded=0;orthogonalLoop=1;jettySize=auto;html=1;exitX=0;exitY=0.5;exitDx=0;exitDy=0;exitPerimeter=0;entryX=0;entryY=1;entryDx=0;entryDy=0;endArrow=none;endFill=0;" edge="1" parent="1" source="4d4zeJCJbdyDPjrFUUaZ-18" target="4d4zeJCJbdyDPjrFUUaZ-15">
          <mxGeometry relative="1" as="geometry" />
        </mxCell>
        <mxCell id="4d4zeJCJbdyDPjrFUUaZ-18" value="" style="shape=providedRequiredInterface;html=1;verticalLabelPosition=bottom;sketch=0;rotation=-215;" vertex="1" parent="1">
          <mxGeometry x="640" y="260" width="20" height="20" as="geometry" />
        </mxCell>
        <mxCell id="4d4zeJCJbdyDPjrFUUaZ-19" value="iotHubInterface" style="text;html=1;align=center;verticalAlign=middle;resizable=0;points=[];autosize=1;strokeColor=none;fillColor=none;" vertex="1" parent="1">
          <mxGeometry x="610" y="230" width="100" height="30" as="geometry" />
        </mxCell>
        <mxCell id="4d4zeJCJbdyDPjrFUUaZ-23" value="3개&lt;div&gt;통신 안전성을 위해 가정 내 3포인트에 위치한다고 가정한다.&lt;/div&gt;" style="shape=note2;boundedLbl=1;whiteSpace=wrap;html=1;size=15;verticalAlign=top;align=left;" vertex="1" parent="1">
          <mxGeometry x="930" y="260" width="200" height="78" as="geometry" />
        </mxCell>
        <mxCell id="4d4zeJCJbdyDPjrFUUaZ-24" style="rounded=0;orthogonalLoop=1;jettySize=auto;html=1;exitX=1;exitY=1;exitDx=0;exitDy=0;entryX=0;entryY=0;entryDx=0;entryDy=0;entryPerimeter=0;endArrow=none;endFill=0;dashed=1;" edge="1" parent="1" source="4d4zeJCJbdyDPjrFUUaZ-15" target="4d4zeJCJbdyDPjrFUUaZ-23">
          <mxGeometry relative="1" as="geometry" />
        </mxCell>
        <mxCell id="4d4zeJCJbdyDPjrFUUaZ-28" value="" style="shape=module;jettyWidth=8;jettyHeight=4;" vertex="1" parent="1">
          <mxGeometry x="373" y="338.5" width="20" height="20" as="geometry" />
        </mxCell>
      </root>
    </mxGraphModel>
  </diagram>
</mxfile>
